<?xml version="1.0" standalone="no"?>
<!DOCTYPE svg PUBLIC "-//W3C//DTD SVG 20010904//EN"
 "http://www.w3.org/TR/2001/REC-SVG-20010904/DTD/svg10.dtd">
<svg version="1.0" xmlns="http://www.w3.org/2000/svg"
 width="1200.000000pt" height="1080.000000pt" viewBox="0 0 1200.000000 1080.000000"
 preserveAspectRatio="xMidYMid meet">

<g transform="translate(0.000000,1080.000000) scale(0.100000,-0.100000)"
fill="#000000" stroke="none">
<path d="M1419 2071 c-59 -60 -22 -150 63 -151 28 0 42 7 62 31 30 35 32 58
11 100 -29 55 -92 64 -136 20z"/>
<path d="M3520 2072 c-38 -39 -40 -79 -4 -121 20 -25 34 -31 64 -31 30 0 44 6
64 31 49 58 20 134 -56 146 -32 5 -41 1 -68 -25z"/>
<path d="M10521 2074 c-86 -72 16 -202 107 -138 52 36 48 120 -8 149 -41 21
-64 19 -99 -11z"/>
<path d="M4150 1951 l0 -140 -51 31 c-138 86 -322 15 -375 -144 -21 -64 -16
-197 10 -246 25 -49 85 -111 125 -132 81 -40 185 -34 253 16 l33 25 3 -25 c3
-25 6 -26 73 -26 l69 0 -2 388 -3 387 -67 3 -68 3 0 -140z m-72 -221 c50 -31
72 -75 72 -145 0 -48 -5 -68 -24 -96 -64 -94 -205 -88 -256 11 -27 52 -27 134
0 178 42 69 139 94 208 52z"/>
<path d="M5460 1949 l0 -141 -22 16 c-73 52 -154 68 -233 46 -54 -15 -128 -78
-156 -132 -60 -118 -40 -272 47 -362 91 -94 217 -110 318 -41 45 31 46 31 46
0 0 -24 2 -25 70 -25 l70 0 -2 388 -3 387 -67 3 -68 3 0 -142z m-69 -222 c97
-65 91 -229 -11 -286 -92 -51 -200 2 -220 109 -14 79 24 165 85 190 40 17 111
11 146 -13z"/>
<path d="M6293 2078 c-127 -14 -248 -99 -305 -216 -31 -63 -33 -72 -33 -177 0
-98 3 -116 27 -167 37 -80 107 -152 187 -191 63 -31 70 -32 186 -32 111 0 124
2 177 28 32 16 78 47 103 70 l46 42 -50 49 -50 49 -37 -33 c-63 -55 -115 -73
-203 -69 -65 3 -85 9 -126 34 -100 62 -145 181 -112 295 56 189 286 243 452
106 l30 -25 50 44 50 43 -30 32 c-85 91 -218 135 -362 118z"/>
<path d="M10270 1976 l0 -105 -37 -3 -38 -3 -3 -57 -3 -57 38 -3 38 -3 3 -217
2 -218 70 0 70 0 0 220 0 220 40 0 40 0 0 60 0 60 -40 0 -39 0 -3 103 -3 102
-67 3 -68 3 0 -105z"/>
<path d="M154 2055 c-10 -26 3 -558 14 -595 18 -54 67 -106 129 -136 76 -38
212 -46 300 -18 73 23 156 99 172 159 7 24 11 150 11 323 l0 282 -84 0 -84 0
-4 -277 c-3 -206 -7 -285 -17 -305 -32 -64 -174 -80 -229 -25 l-27 27 -3 290
-3 290 -85 0 c-65 0 -86 -3 -90 -15z"/>
<path d="M1062 1865 c-18 -8 -47 -24 -63 -35 l-29 -21 0 30 0 31 -70 0 -70 0
0 -280 0 -280 69 0 69 0 4 173 c3 148 6 178 22 203 28 43 57 64 94 64 88 0
102 -37 102 -265 l0 -175 70 0 70 0 0 213 c0 264 -12 300 -113 342 -45 19
-111 19 -155 0z"/>
<path d="M2347 1866 c-99 -37 -167 -114 -188 -214 -29 -141 34 -272 160 -334
37 -18 63 -23 131 -23 73 0 93 4 142 28 31 15 69 42 83 59 l27 32 -55 28 -55
27 -47 -25 c-39 -23 -55 -26 -111 -22 -58 4 -68 8 -99 38 -18 19 -37 47 -40
63 l-7 27 227 0 228 0 -6 59 c-14 160 -118 260 -277 268 -48 2 -89 -2 -113
-11z m183 -127 c20 -11 45 -34 54 -50 l17 -29 -150 0 c-83 0 -151 3 -151 8 0
15 46 62 75 77 43 21 110 19 155 -6z"/>
<path d="M2965 1869 c-11 -6 -30 -23 -42 -38 l-23 -26 0 33 0 32 -60 0 -60 0
0 -280 0 -280 70 0 70 0 0 173 c0 94 5 189 11 210 12 44 47 71 82 62 23 -6 26
-2 45 53 17 52 18 61 5 66 -23 9 -76 6 -98 -5z"/>
<path d="M3174 1861 c-102 -46 -123 -171 -43 -251 17 -16 62 -46 100 -66 39
-21 78 -48 86 -61 14 -21 14 -25 -2 -43 -30 -33 -103 -20 -156 26 -14 13 -21
9 -58 -32 l-43 -46 24 -25 c43 -46 97 -67 173 -68 91 0 152 33 184 98 52 108
5 189 -155 270 -64 32 -81 51 -64 72 18 21 73 19 103 -5 14 -11 29 -20 34 -20
5 0 26 18 48 40 l39 40 -25 26 c-56 61 -165 81 -245 45z"/>
<path d="M4546 1870 c-116 -35 -196 -171 -183 -312 19 -209 225 -330 390 -228
l47 29 0 -24 c0 -24 2 -25 70 -25 l70 0 0 280 0 280 -70 0 -70 0 0 -31 0 -30
-32 24 c-60 44 -148 59 -222 37z m184 -139 c52 -28 83 -92 76 -160 -9 -92 -64
-146 -151 -146 -57 0 -91 18 -128 67 -48 65 -24 196 45 238 42 25 112 26 158
1z"/>
<path d="M6925 1867 c-129 -51 -198 -149 -198 -282 0 -81 17 -129 68 -191 80
-97 239 -129 350 -72 109 56 165 146 165 264 0 168 -129 295 -298 293 -31 0
-70 -6 -87 -12z m182 -145 c40 -28 63 -79 63 -137 0 -119 -108 -193 -213 -147
-52 23 -77 55 -87 113 -21 113 55 205 161 196 26 -2 60 -13 76 -25z"/>
<path d="M7557 1866 c-88 -33 -157 -102 -185 -185 -20 -59 -15 -160 12 -216
26 -57 99 -129 154 -153 55 -24 175 -21 233 5 150 67 217 250 146 395 -30 62
-75 106 -140 140 -53 27 -166 34 -220 14z m163 -134 c75 -38 105 -149 62 -232
-20 -38 -89 -80 -132 -80 -43 0 -112 42 -132 80 -26 48 -21 144 10 187 42 60
125 79 192 45z"/>
<path d="M8255 1869 c-16 -7 -45 -22 -62 -36 l-33 -24 0 30 0 31 -70 0 -70 0
0 -385 0 -385 70 0 70 0 0 130 0 129 36 -24 c67 -45 129 -54 208 -31 67 20
129 75 163 144 24 49 28 68 27 142 0 67 -5 95 -23 132 -26 54 -79 111 -124
134 -39 21 -151 28 -192 13z m127 -136 c70 -42 96 -146 56 -222 -33 -64 -68
-86 -133 -86 -57 0 -91 18 -128 67 -48 65 -24 196 45 238 42 25 119 27 160 3z"/>
<path d="M8850 1871 c-97 -30 -169 -107 -196 -210 -36 -141 34 -289 163 -347
59 -27 194 -24 259 5 47 20 124 85 113 95 -2 2 -28 16 -57 30 l-53 27 -32 -23
c-45 -32 -149 -37 -195 -9 -32 21 -72 75 -72 99 0 9 52 12 225 12 l225 0 0 43
c0 122 -82 239 -190 271 -56 17 -147 20 -190 7z m166 -127 c30 -14 74 -61 74
-78 0 -3 -68 -6 -150 -6 l-151 0 16 30 c32 61 138 88 211 54z"/>
<path d="M9430 1844 l-40 -36 0 31 0 31 -60 0 -60 0 0 -280 0 -280 70 0 70 0
0 168 c0 92 5 184 11 205 15 54 43 80 79 72 27 -6 29 -3 50 51 24 65 19 74
-42 74 -30 0 -47 -8 -78 -36z"/>
<path d="M9756 1870 c-116 -35 -196 -171 -183 -312 19 -209 225 -330 390 -228
l47 29 0 -24 c0 -24 2 -25 70 -25 l70 0 0 280 0 280 -70 0 -70 0 0 -31 0 -30
-32 24 c-60 44 -148 59 -222 37z m184 -139 c52 -28 83 -92 76 -160 -9 -92 -64
-146 -151 -146 -57 0 -91 18 -128 67 -48 65 -24 196 45 238 42 25 112 26 158
1z"/>
<path d="M11429 1866 c-115 -41 -190 -175 -176 -314 12 -115 91 -218 191 -247
81 -24 143 -16 210 30 l36 24 0 -24 c0 -24 2 -25 70 -25 l70 0 0 280 0 280
-70 0 -70 0 0 -31 0 -30 -32 24 c-64 47 -154 60 -229 33z m203 -141 c48 -32
73 -97 64 -163 -7 -51 -27 -84 -70 -116 -38 -29 -124 -29 -163 0 -36 26 -73
98 -73 143 0 48 35 116 73 140 47 30 122 28 169 -4z"/>
<path d="M1410 1590 l0 -280 70 0 70 0 0 280 0 280 -70 0 -70 0 0 -280z"/>
<path d="M1577 1853 c4 -10 57 -135 119 -278 l111 -260 48 0 49 0 117 270 c65
149 118 274 118 278 1 4 -31 7 -70 5 l-71 -3 -67 -157 c-37 -87 -69 -160 -72
-162 -2 -3 -36 68 -74 157 l-70 162 -72 3 c-66 3 -72 1 -66 -15z"/>
<path d="M3510 1590 l0 -280 70 0 70 0 0 280 0 280 -70 0 -70 0 0 -280z"/>
<path d="M10510 1590 l0 -280 70 0 70 0 0 280 0 280 -70 0 -70 0 0 -280z"/>
<path d="M10670 1868 c0 -2 53 -127 118 -278 l118 -275 48 0 49 0 118 275 c65
151 119 276 119 278 0 2 -32 2 -71 0 l-72 -3 -70 -164 c-63 -146 -72 -161 -82
-140 -5 13 -37 86 -70 163 l-61 141 -72 3 c-40 2 -72 1 -72 0z"/>
<path d="M8527 1000 c-68 -54 -25 -160 64 -160 11 0 34 13 50 29 80 80 -25
201 -114 131z"/>
<path d="M3500 875 c0 -124 -6 -155 -26 -124 -15 24 -96 51 -156 50 -139 0
-243 -109 -256 -266 -7 -90 17 -160 75 -225 60 -67 109 -89 192 -90 53 0 74 5
118 30 l53 30 0 -25 c0 -24 2 -25 70 -25 l70 0 0 390 0 390 -70 0 -70 0 0
-135z m-69 -221 c71 -36 99 -144 57 -224 -58 -112 -209 -112 -265 0 -13 24
-23 60 -23 80 1 71 54 147 115 163 27 7 84 -2 116 -19z"/>
<path d="M4964 1000 c-65 -13 -162 -67 -209 -116 -24 -25 -56 -70 -72 -102
-26 -52 -28 -66 -28 -172 0 -110 1 -118 33 -182 41 -83 119 -158 200 -189 46
-19 76 -23 162 -23 126 0 184 19 273 90 l57 46 -47 52 -48 53 -40 -32 c-89
-72 -176 -91 -279 -61 -182 53 -236 299 -94 432 101 96 240 97 364 4 l51 -39
49 50 49 50 -40 34 c-110 94 -247 131 -381 105z"/>
<path d="M6070 620 l0 -390 70 0 70 0 0 390 0 390 -70 0 -70 0 0 -390z"/>
<path d="M7870 620 l0 -390 70 0 c68 0 70 1 70 25 0 31 1 31 52 -2 33 -22 55
-28 112 -31 81 -4 125 10 181 59 66 58 89 111 93 215 4 82 2 98 -20 146 -51
111 -137 163 -257 156 -59 -3 -77 -9 -116 -36 l-45 -32 0 140 0 140 -70 0 -70
0 0 -390z m376 29 c42 -26 64 -75 64 -142 0 -94 -62 -161 -150 -161 -57 0 -91
20 -128 75 -20 29 -23 44 -20 101 3 61 7 71 38 103 56 58 127 66 196 24z"/>
<path d="M3953 799 c-140 -18 -236 -135 -237 -289 0 -116 47 -202 142 -257 38
-22 61 -28 133 -31 54 -3 101 0 125 8 48 16 120 64 134 90 9 17 4 23 -41 46
l-52 26 -51 -26 c-107 -54 -220 -18 -250 82 l-7 22 225 0 226 0 0 50 c0 102
-63 206 -154 252 -49 25 -124 36 -193 27z m137 -134 c28 -15 70 -60 70 -76 0
-5 -67 -9 -150 -9 -82 0 -150 3 -150 8 0 16 34 54 64 73 38 23 125 25 166 4z"/>
<path d="M5594 776 c-111 -52 -168 -142 -168 -266 0 -90 23 -149 81 -207 55
-55 105 -76 190 -81 176 -10 299 99 311 274 4 61 1 80 -20 125 -35 77 -70 113
-140 148 -81 41 -176 43 -254 7z m206 -128 c93 -64 91 -221 -3 -278 -43 -26
-121 -26 -164 0 -93 56 -91 219 3 281 42 27 121 26 164 -3z"/>
<path d="M6435 776 c-57 -26 -129 -99 -153 -154 -25 -58 -22 -176 6 -233 68
-139 226 -204 374 -153 143 48 224 224 172 376 -51 152 -250 234 -399 164z
m206 -129 c92 -61 92 -211 -1 -275 -43 -29 -121 -30 -167 -2 -95 58 -89 235
10 284 48 23 117 21 158 -7z"/>
<path d="M7150 789 c-13 -6 -39 -21 -57 -35 l-33 -25 0 30 0 31 -70 0 -70 0 0
-280 0 -280 69 0 69 0 4 173 c3 187 10 213 61 251 40 29 91 26 125 -7 l27 -27
3 -195 3 -195 68 0 68 0 5 173 c5 197 14 227 81 260 31 16 42 17 73 7 57 -19
64 -49 64 -260 l0 -180 70 0 70 0 0 218 c0 206 -1 220 -22 262 -55 108 -226
124 -324 29 l-30 -29 -30 31 c-16 17 -41 37 -56 45 -31 16 -131 18 -168 3z"/>
<path d="M8874 786 c-91 -40 -154 -138 -162 -252 -11 -178 103 -314 265 -314
62 0 132 24 148 50 11 18 25 10 25 -15 0 -24 2 -25 70 -25 l70 0 0 280 0 280
-70 0 -70 0 0 -32 0 -31 -23 21 c-12 11 -39 28 -59 37 -46 18 -152 19 -194 1z
m209 -132 c57 -30 88 -118 67 -194 -24 -89 -114 -137 -197 -105 -105 40 -138
183 -61 270 48 55 119 66 191 29z"/>
<path d="M8510 510 l0 -280 70 0 70 0 0 280 0 280 -70 0 -70 0 0 -280z"/>
</g>
</svg>
